<svg width="80" height="260" viewBox="0 0 80 260" fill="none" xmlns="http://www.w3.org/2000/svg">
<rect x="70" width="10" height="10" fill="white"/>
<rect x="70" width="10" height="10" fill="white"/>
<rect x="70" y="20" width="10" height="10" fill="white"/>
<rect x="70" y="40" width="10" height="10" fill="white"/>
<rect x="70" y="60" width="10" height="10" fill="white"/>
<rect x="70" y="80" width="10" height="10" fill="white"/>
<rect x="70" y="100" width="10" height="10" fill="white"/>
<rect x="70" y="120" width="10" height="10" fill="white"/>
<rect x="70" y="140" width="10" height="10" fill="white"/>
<rect x="70" y="160" width="10" height="10" fill="white"/>
<rect x="70" y="180" width="10" height="10" fill="white"/>
<rect x="70" y="200" width="10" height="10" fill="white"/>
<rect x="70" y="220" width="10" height="10" fill="white"/>
<rect x="70" y="240" width="10" height="10" fill="white"/>
<rect y="10" width="10" height="10" fill="white"/>
<rect y="30" width="10" height="10" fill="white"/>
<rect y="50" width="10" height="10" fill="white"/>
<rect y="70" width="10" height="10" fill="white"/>
<rect y="90" width="10" height="10" fill="white"/>
<rect y="110" width="10" height="10" fill="white"/>
<rect y="130" width="10" height="10" fill="white"/>
<rect y="150" width="10" height="10" fill="white"/>
<rect y="170" width="10" height="10" fill="white"/>
<rect y="190" width="10" height="10" fill="white"/>
<rect y="210" width="10" height="10" fill="white"/>
<rect y="230" width="10" height="10" fill="white"/>
<rect y="250" width="10" height="10" fill="white"/>
<rect x="60" width="10" height="10" fill="black"/>
<rect x="60" y="20" width="10" height="10" fill="black"/>
<rect x="60" y="40" width="10" height="10" fill="black"/>
<rect x="60" y="60" width="10" height="10" fill="black"/>
<rect x="60" y="80" width="10" height="10" fill="black"/>
<rect x="60" y="100" width="10" height="10" fill="black"/>
<rect x="60" y="120" width="10" height="10" fill="black"/>
<rect x="60" y="140" width="10" height="10" fill="black"/>
<rect x="60" y="160" width="10" height="10" fill="black"/>
<rect x="60" y="180" width="10" height="10" fill="black"/>
<rect x="60" y="200" width="10" height="10" fill="black"/>
<rect x="60" y="220" width="10" height="10" fill="black"/>
<rect x="60" y="240" width="10" height="10" fill="black"/>
<rect x="70" y="10" width="10" height="10" fill="black"/>
<rect x="70" y="30" width="10" height="10" fill="black"/>
<rect x="70" y="50" width="10" height="10" fill="black"/>
<rect x="70" y="70" width="10" height="10" fill="black"/>
<rect x="70" y="90" width="10" height="10" fill="black"/>
<rect x="70" y="110" width="10" height="10" fill="black"/>
<rect x="70" y="130" width="10" height="10" fill="black"/>
<rect x="70" y="150" width="10" height="10" fill="black"/>
<rect x="70" y="170" width="10" height="10" fill="black"/>
<rect x="70" y="190" width="10" height="10" fill="black"/>
<rect x="70" y="210" width="10" height="10" fill="black"/>
<rect x="70" y="230" width="10" height="10" fill="black"/>
<rect x="70" y="250" width="10" height="10" fill="black"/>
<rect x="50" width="10" height="10" fill="white"/>
<rect x="50" y="20" width="10" height="10" fill="white"/>
<rect x="50" y="40" width="10" height="10" fill="white"/>
<rect x="50" y="60" width="10" height="10" fill="white"/>
<rect x="50" y="80" width="10" height="10" fill="white"/>
<rect x="50" y="100" width="10" height="10" fill="white"/>
<rect x="50" y="120" width="10" height="10" fill="white"/>
<rect x="50" y="140" width="10" height="10" fill="white"/>
<rect x="50" y="160" width="10" height="10" fill="white"/>
<rect x="50" y="180" width="10" height="10" fill="white"/>
<rect x="50" y="200" width="10" height="10" fill="white"/>
<rect x="50" y="220" width="10" height="10" fill="white"/>
<rect x="50" y="240" width="10" height="10" fill="white"/>
<rect x="60" y="10" width="10" height="10" fill="white"/>
<rect x="60" y="30" width="10" height="10" fill="white"/>
<rect x="60" y="50" width="10" height="10" fill="white"/>
<rect x="60" y="70" width="10" height="10" fill="white"/>
<rect x="60" y="90" width="10" height="10" fill="white"/>
<rect x="60" y="110" width="10" height="10" fill="white"/>
<rect x="60" y="130" width="10" height="10" fill="white"/>
<rect x="60" y="150" width="10" height="10" fill="white"/>
<rect x="60" y="170" width="10" height="10" fill="white"/>
<rect x="60" y="190" width="10" height="10" fill="white"/>
<rect x="60" y="210" width="10" height="10" fill="white"/>
<rect x="60" y="230" width="10" height="10" fill="white"/>
<rect x="60" y="250" width="10" height="10" fill="white"/>
<rect x="30" width="10" height="10" fill="white"/>
<rect x="30" y="20" width="10" height="10" fill="white"/>
<rect x="30" y="40" width="10" height="10" fill="white"/>
<rect x="30" y="60" width="10" height="10" fill="white"/>
<rect x="30" y="80" width="10" height="10" fill="white"/>
<rect x="30" y="100" width="10" height="10" fill="white"/>
<rect x="30" y="120" width="10" height="10" fill="white"/>
<rect x="30" y="140" width="10" height="10" fill="white"/>
<rect x="30" y="160" width="10" height="10" fill="white"/>
<rect x="30" y="180" width="10" height="10" fill="white"/>
<rect x="30" y="200" width="10" height="10" fill="white"/>
<rect x="30" y="220" width="10" height="10" fill="white"/>
<rect x="30" y="240" width="10" height="10" fill="white"/>
<rect x="40" y="10" width="10" height="10" fill="white"/>
<rect x="40" y="30" width="10" height="10" fill="white"/>
<rect x="40" y="50" width="10" height="10" fill="white"/>
<rect x="40" y="70" width="10" height="10" fill="white"/>
<rect x="40" y="90" width="10" height="10" fill="white"/>
<rect x="40" y="110" width="10" height="10" fill="white"/>
<rect x="40" y="130" width="10" height="10" fill="white"/>
<rect x="40" y="150" width="10" height="10" fill="white"/>
<rect x="40" y="170" width="10" height="10" fill="white"/>
<rect x="40" y="190" width="10" height="10" fill="white"/>
<rect x="40" y="210" width="10" height="10" fill="white"/>
<rect x="40" y="230" width="10" height="10" fill="white"/>
<rect x="40" y="250" width="10" height="10" fill="white"/>
<rect x="10" width="10" height="10" fill="white"/>
<rect x="10" y="20" width="10" height="10" fill="white"/>
<rect x="10" y="40" width="10" height="10" fill="white"/>
<rect x="10" y="60" width="10" height="10" fill="white"/>
<rect x="10" y="80" width="10" height="10" fill="white"/>
<rect x="10" y="100" width="10" height="10" fill="white"/>
<rect x="10" y="120" width="10" height="10" fill="white"/>
<rect x="10" y="140" width="10" height="10" fill="white"/>
<rect x="10" y="160" width="10" height="10" fill="white"/>
<rect x="10" y="180" width="10" height="10" fill="white"/>
<rect x="10" y="200" width="10" height="10" fill="white"/>
<rect x="10" y="220" width="10" height="10" fill="white"/>
<rect x="10" y="240" width="10" height="10" fill="white"/>
<rect x="20" y="10" width="10" height="10" fill="white"/>
<rect x="20" y="30" width="10" height="10" fill="white"/>
<rect x="20" y="50" width="10" height="10" fill="white"/>
<rect x="20" y="70" width="10" height="10" fill="white"/>
<rect x="20" y="90" width="10" height="10" fill="white"/>
<rect x="20" y="110" width="10" height="10" fill="white"/>
<rect x="20" y="130" width="10" height="10" fill="white"/>
<rect x="20" y="150" width="10" height="10" fill="white"/>
<rect x="20" y="170" width="10" height="10" fill="white"/>
<rect x="20" y="190" width="10" height="10" fill="white"/>
<rect x="20" y="210" width="10" height="10" fill="white"/>
<rect x="20" y="230" width="10" height="10" fill="white"/>
<rect x="20" y="250" width="10" height="10" fill="white"/>
<rect x="40" width="10" height="10" fill="black"/>
<rect x="40" y="20" width="10" height="10" fill="black"/>
<rect x="40" y="40" width="10" height="10" fill="black"/>
<rect x="40" y="60" width="10" height="10" fill="black"/>
<rect x="40" y="80" width="10" height="10" fill="black"/>
<rect x="40" y="100" width="10" height="10" fill="black"/>
<rect x="40" y="120" width="10" height="10" fill="black"/>
<rect x="40" y="140" width="10" height="10" fill="black"/>
<rect x="40" y="160" width="10" height="10" fill="black"/>
<rect x="40" y="180" width="10" height="10" fill="black"/>
<rect x="40" y="200" width="10" height="10" fill="black"/>
<rect x="40" y="220" width="10" height="10" fill="black"/>
<rect x="40" y="240" width="10" height="10" fill="black"/>
<rect x="50" y="10" width="10" height="10" fill="black"/>
<rect x="50" y="30" width="10" height="10" fill="black"/>
<rect x="50" y="50" width="10" height="10" fill="black"/>
<rect x="50" y="70" width="10" height="10" fill="black"/>
<rect x="50" y="90" width="10" height="10" fill="black"/>
<rect x="50" y="110" width="10" height="10" fill="black"/>
<rect x="50" y="130" width="10" height="10" fill="black"/>
<rect x="50" y="150" width="10" height="10" fill="black"/>
<rect x="50" y="170" width="10" height="10" fill="black"/>
<rect x="50" y="190" width="10" height="10" fill="black"/>
<rect x="50" y="210" width="10" height="10" fill="black"/>
<rect x="50" y="230" width="10" height="10" fill="black"/>
<rect x="50" y="250" width="10" height="10" fill="black"/>
<rect x="20" width="10" height="10" fill="black"/>
<rect x="20" width="10" height="10" fill="black"/>
<rect x="20" y="20" width="10" height="10" fill="black"/>
<rect x="20" y="40" width="10" height="10" fill="black"/>
<rect x="20" y="60" width="10" height="10" fill="black"/>
<rect x="20" y="80" width="10" height="10" fill="black"/>
<rect x="20" y="100" width="10" height="10" fill="black"/>
<rect x="20" y="120" width="10" height="10" fill="black"/>
<rect x="20" y="140" width="10" height="10" fill="black"/>
<rect x="20" y="160" width="10" height="10" fill="black"/>
<rect x="20" y="180" width="10" height="10" fill="black"/>
<rect x="20" y="200" width="10" height="10" fill="black"/>
<rect x="20" y="220" width="10" height="10" fill="black"/>
<rect x="20" y="240" width="10" height="10" fill="black"/>
<rect x="30" y="10" width="10" height="10" fill="black"/>
<rect x="30" y="30" width="10" height="10" fill="black"/>
<rect x="30" y="50" width="10" height="10" fill="black"/>
<rect x="30" y="70" width="10" height="10" fill="black"/>
<rect x="30" y="90" width="10" height="10" fill="black"/>
<rect x="30" y="110" width="10" height="10" fill="black"/>
<rect x="30" y="130" width="10" height="10" fill="black"/>
<rect x="30" y="150" width="10" height="10" fill="black"/>
<rect x="30" y="170" width="10" height="10" fill="black"/>
<rect x="30" y="190" width="10" height="10" fill="black"/>
<rect x="30" y="210" width="10" height="10" fill="black"/>
<rect x="30" y="230" width="10" height="10" fill="black"/>
<rect x="30" y="250" width="10" height="10" fill="black"/>
<rect width="10" height="10" fill="black"/>
<rect y="20" width="10" height="10" fill="black"/>
<rect y="40" width="10" height="10" fill="black"/>
<rect y="60" width="10" height="10" fill="black"/>
<rect y="80" width="10" height="10" fill="black"/>
<rect y="100" width="10" height="10" fill="black"/>
<rect y="120" width="10" height="10" fill="black"/>
<rect y="140" width="10" height="10" fill="black"/>
<rect y="160" width="10" height="10" fill="black"/>
<rect y="180" width="10" height="10" fill="black"/>
<rect y="200" width="10" height="10" fill="black"/>
<rect y="220" width="10" height="10" fill="black"/>
<rect y="240" width="10" height="10" fill="black"/>
<rect x="10" y="10" width="10" height="10" fill="black"/>
<rect x="10" y="30" width="10" height="10" fill="black"/>
<rect x="10" y="50" width="10" height="10" fill="black"/>
<rect x="10" y="70" width="10" height="10" fill="black"/>
<rect x="10" y="90" width="10" height="10" fill="black"/>
<rect x="10" y="110" width="10" height="10" fill="black"/>
<rect x="10" y="130" width="10" height="10" fill="black"/>
<rect x="10" y="150" width="10" height="10" fill="black"/>
<rect x="10" y="170" width="10" height="10" fill="black"/>
<rect x="10" y="190" width="10" height="10" fill="black"/>
<rect x="10" y="210" width="10" height="10" fill="black"/>
<rect x="10" y="230" width="10" height="10" fill="black"/>
<rect x="10" y="250" width="10" height="10" fill="black"/>
</svg>
