<svg width="1140" height="260" viewBox="0 0 1140 260" fill="none" xmlns="http://www.w3.org/2000/svg">
<rect width="1140" height="260" fill="#ADADAD"/>
<rect x="231" width="10" height="260" fill="white"/>
<rect x="1050" width="10" height="260" fill="white"/>
<rect y="135" width="10" height="1050" transform="rotate(-90 0 135)" fill="white"/>
<path d="M16 4V28H10.5625V8.11429H10.1875L5.6875 10.3429L4 8.11429L10.375 4H16Z" fill="white"/>
<path d="M15.746 244.167C16.5503 243.589 17.2487 242.889 17.8413 242.067C18.455 241.222 18.7619 240.256 18.7619 239.167C18.7619 237.744 18.328 236.611 17.4603 235.767C16.5926 234.922 15.2804 234.5 13.5238 234.5C11.9365 234.5 10.4868 234.733 9.1746 235.2C7.8836 235.644 6.63492 236.411 5.42857 237.5L4 235.5C5.20635 234.411 6.62434 233.556 8.25397 232.933C9.90476 232.311 11.7672 232 13.8413 232C15.5132 232 16.963 232.167 18.1905 232.5C19.418 232.833 20.4339 233.311 21.2381 233.933C22.0635 234.533 22.6772 235.256 23.0794 236.1C23.4815 236.922 23.6825 237.833 23.6825 238.833C23.6825 239.833 23.545 240.733 23.2698 241.533C22.9947 242.311 22.6243 243.022 22.1587 243.667C21.7143 244.311 21.1958 244.9 20.6032 245.433C20.0106 245.967 19.3968 246.489 18.7619 247L10.6667 253.5H24V256H4.31746V253.333L15.746 244.167Z" fill="#FFFAFA"/>
</svg>
